<?xml version="1.0" encoding="utf-8"?>
<!-- Generator: Adobe Illustrator 27.0.1, SVG Export Plug-In . SVG Version: 6.00 Build 0)  -->
<svg version="1.1" id="Layer_2_00000108994327805522220510000014874827150167439003_"
	 xmlns="http://www.w3.org/2000/svg" xmlns:xlink="http://www.w3.org/1999/xlink" x="0px" y="0px" viewBox="0 0 604.8 137.9"
	 style="enable-background:new 0 0 604.8 137.9;" xml:space="preserve">
<style type="text/css">
	.st0{display:none;opacity:0.57;}
	.st1{display:inline;enable-background:new    ;}
	.st2{font-family:'MyriadPro-Regular';}
	.st3{font-size:26.9px;}
	.st4{letter-spacing:1;}
	.st5{font-family:'ArialHebrew-Light';}
	.st6{display:inline;}
	.st7{fill:#3192D0;}
	.st8{fill:#AE538E;}
</style>
<g id="Layer_1-2">
	<g>
		<g class="st0">
			<text transform="matrix(1 0 0 1 94.13 130.17)" class="st1"><tspan x="0" y="0" class="st2 st3 st4">open</tspan><tspan x="63.9" y="0" class="st5 st3 st4"> </tspan></text>
			<text transform="matrix(1 0 0 1 180.54 130.17)" class="st6 st2 st3">r</text>
			<text transform="matrix(1 0 0 1 192.59 130.17)" class="st6 st2 st3 st4">es</text>
			<text transform="matrix(1 0 0 1 226.08 130.17)" class="st6 st2 st3">e</text>
			<text transform="matrix(1 0 0 1 243.26 130.17)" class="st6 st2 st3 st4">a</text>
			<text transform="matrix(1 0 0 1 262.87 130.17)" class="st6 st2 st3">r</text>
			<text transform="matrix(1 0 0 1 274.92 130.17)" class="st1"><tspan x="0" y="0" class="st2 st3 st4">ch</tspan><tspan x="29.7" y="0" class="st5 st3 st4"> </tspan><tspan x="38.5" y="0" class="st2 st3 st4">metrics</tspan><tspan x="130.5" y="0" class="st5 st3 st4"> </tspan><tspan x="139.3" y="0" class="st2 st3 st4">dataspace</tspan></text>
		</g>
		<path class="st7" d="M9.5,119.5l3-4.5c0.8-1.1,2.3-1.3,3.4-0.5c6.7,5.6,15.7,8.6,24.8,8.6c14.5,0,30.8-8.7,30.8-33.1V66.3
			c-3.7,9.3-15.3,17-31.7,17C16.4,83.3,0,65.7,0,43.3S16.4,3.1,39.7,3.1c11.5,0,22.1,4,28.3,10.7c1.4,1.5,3.9,0.5,3.9-1.6V7.1
			c0-1.3,1-2.3,2.3-2.3h8.2c1.3,0,2.3,1,2.3,2.3v82.7c0,33.2-24.4,43.6-43,43.6c-12.8,0-23.8-3.9-31.8-10.8
			C9,121.7,8.8,120.4,9.5,119.5L9.5,119.5z M71.4,42.3c0-15.6-13.1-27.6-29.1-27.6S13.6,27,13.6,43.3s12.5,28.5,28.8,28.5
			S71.4,59.6,71.4,42.3L71.4,42.3z"/>
		<path class="st7" d="M105,4.8h8.7c1.3,0,2.3,1,2.3,2.3v7.1c0,2.2,2.7,3.1,4.1,1.4c5.5-7,14.3-11.9,26.3-12.4
			c1.3-0.1,2.4,1,2.4,2.3v9.5c0,1.2-0.9,2.2-2.2,2.3c-18.6,0.8-30.6,11.6-30.6,31v36.9c0,1.3-1,2.3-2.3,2.3H105
			c-1.3,0-2.3-1-2.3-2.3V7.1C102.7,5.8,103.7,4.8,105,4.8L105,4.8z"/>
		<path class="st7" d="M152.8,46.2c0-24.3,16.6-43.1,40.1-43.1c11.1,0,21.2,3.7,28,10.9c1.4,1.5,3.9,0.5,3.9-1.6V7.1
			c0-1.3,1-2.3,2.3-2.3h8.7c1.3,0,2.3,1,2.3,2.3v78c0,1.3-1,2.3-2.3,2.3H227c-1.3,0-2.3-1-2.3-2.3v-5.2c0-2.1-2.5-3.1-3.9-1.6
			c-6.7,7.2-16.8,10.8-27.9,10.8C169.3,89.1,152.8,70.1,152.8,46.2L152.8,46.2z M224.7,46.2c0-17.3-12.7-30.5-28.9-30.5
			s-29.4,12.9-29.4,30.5s12.6,30.4,29.4,30.4S224.7,63.5,224.7,46.2z"/>
		<path class="st7" d="M250.1,75l3.3-6.4c0.7-1.3,2.4-1.6,3.5-0.7c6.1,5,14.5,8.9,25.5,8.9c11.7,0,21.3-5.3,21.3-12.7
			c0-8.7-10.3-11-20.6-13.6c-15.7-3.9-30-8.1-30-23.9c0-14.9,16-23.6,30.3-23.6c10.9,0,19,2.7,27.1,7.7c1,0.6,1.4,1.9,0.9,3
			l-3.2,6.4c-0.6,1.2-2.1,1.6-3.2,1c-6.5-3.9-13.4-5.8-21.5-5.8c-8.7,0-16.9,4.8-16.9,11.2c0,8.1,9.4,10,19.3,12
			c15.3,3.4,31.2,9,31.2,25.3c0,17.5-18.3,25.3-34.9,25.3s-26.5-6.5-31.9-11.3C249.8,77,249.6,75.9,250.1,75L250.1,75z"/>
		<path class="st7" d="M333.7,4.8h8.1c1.3,0,2.3,1,2.3,2.3v5.2c0,2.1,2.5,3.1,3.9,1.6c6.8-7.2,17.2-10.7,28.5-10.7
			c23.5,0,40.1,18.8,40.1,42.9s-16.6,43.1-40.1,43.1c-11,0-21.2-3.7-28-10.9c-1.4-1.5-3.9-0.5-3.9,1.6v21.8c0,1.3-1,2.3-2.3,2.3
			h-8.7c-1.3,0-2.3-1-2.3-2.3V7.1C331.4,5.8,332.4,4.8,333.7,4.8L333.7,4.8z M403,46c0-17.5-12.5-30.4-29.5-30.4
			S344.7,28.7,344.7,46s12.7,30.5,28.9,30.5S403,63.6,403,46z"/>
		<path class="st7" d="M537.8,74.5l2.6-5c0.9-1.7,3.1-2.2,4.6-1c6.1,4.8,14.2,8.4,24.9,8.4c11.7,0,21.3-5.3,21.3-12.7
			c0-8.7-10.3-11-20.6-13.6c-15.7-3.9-30-8.1-30-23.9c0-14.9,16-23.6,30.3-23.6c10.6,0,18.6,2.5,26.5,7.3c1.4,0.8,1.9,2.6,1.2,4
			l-2.5,5c-0.8,1.6-2.8,2.2-4.3,1.3c-6.3-3.6-13-5.4-20.7-5.4c-8.7,0-16.9,4.8-16.9,11.2c0,8.1,9.4,10,19.3,12
			c15.3,3.4,31.2,9,31.2,25.3c0,17.5-18.3,25.3-34.8,25.3c-15.4,0-25.8-6.1-31.3-10.9C537.5,77.2,537.2,75.7,537.8,74.5L537.8,74.5z
			"/>
		<g>
			<path class="st7" d="M453.9,20.1l-3.8-4.3c-2-2.3-1.6-5.8,0.9-7.5C458.8,2.9,468,0,477.6,0c9,0,17.7,2.6,25.2,7.3
				c2.6,1.6,3.2,5.2,1.3,7.6l-3.6,4.4c-1.6,2-4.5,2.4-6.7,1.1c-4.9-2.9-10.5-4.5-16.2-4.5c-6.1,0-12.1,1.8-17.2,5.1
				C458.3,22.4,455.5,22,453.9,20.1L453.9,20.1z"/>
			<path class="st8" d="M473.7,89c-0.3,3.1-3.2,5.2-6.2,4.5c-21.5-4.7-37.1-23.6-37.1-46.2c0-9,2.6-17.8,7.3-25.3
				c1.6-2.6,5.2-3.2,7.6-1.3l4.5,3.6c2,1.6,2.4,4.5,1.1,6.7c-2.9,4.9-4.5,10.5-4.5,16.2c0,14.8,10,27.2,24,30.5
				c2.5,0.6,4.2,2.9,4,5.4L473.7,89L473.7,89z"/>
			<path class="st7" d="M482.5,88.3l-0.6-5.7c-0.2-2.6,1.5-4.9,4-5.5c14.4-3.5,24.5-16.8,23.8-32c-0.2-3.9-1.1-7.6-2.6-11.1
				c-1-2.3-0.2-5,2-6.4l4.9-3c2.6-1.6,6.1-0.6,7.4,2.2c2.5,5.5,4,11.5,4.3,17.5c1.2,23.3-14.7,43.5-36.8,48.5
				C485.8,93.4,482.8,91.4,482.5,88.3L482.5,88.3z"/>
		</g>
	</g>
</g>
</svg>
