<?xml version="1.0" encoding="UTF-8"?><svg id="Layer_2" xmlns="http://www.w3.org/2000/svg" viewBox="0 0 604.74 134.33"><defs><style>.cls-1{fill:#fff;}.cls-2{isolation:isolate;}</style></defs><g id="Layer_2-2"><g><g class="cls-2"><path class="cls-1" d="M110.62,128.98c-1.25,0-2.36-.28-3.34-.84-.98-.56-1.75-1.33-2.32-2.32s-.84-2.1-.84-3.34,.28-2.38,.84-3.37,1.33-1.75,2.32-2.32,2.1-.84,3.34-.84,2.36,.28,3.33,.84c.97,.56,1.74,1.33,2.3,2.32,.56,.98,.85,2.1,.87,3.37,0,1.25-.29,2.36-.85,3.34-.57,.98-1.34,1.75-2.32,2.32-.97,.56-2.09,.84-3.33,.84Zm0-1.64c.9,0,1.71-.21,2.43-.63,.72-.42,1.28-1,1.68-1.73,.41-.73,.61-1.57,.61-2.5s-.2-1.77-.61-2.51-.97-1.32-1.68-1.74c-.72-.42-1.53-.63-2.43-.63s-1.71,.21-2.43,.63c-.72,.42-1.28,1-1.7,1.74s-.62,1.58-.62,2.51,.21,1.77,.62,2.5c.41,.73,.98,1.31,1.7,1.73,.72,.42,1.53,.63,2.43,.63Z"/><path class="cls-1" d="M122.71,134.33c-.28,0-.5-.08-.67-.25-.16-.16-.25-.39-.25-.67v-11.04c.02-1.22,.31-2.31,.88-3.29s1.34-1.74,2.32-2.3,2.07-.84,3.29-.84,2.36,.28,3.34,.85,1.76,1.34,2.33,2.33,.85,2.1,.85,3.34-.28,2.34-.83,3.32-1.31,1.76-2.26,2.33-2.03,.85-3.23,.85c-1.04,0-1.99-.22-2.84-.67-.85-.44-1.53-1.03-2.05-1.77v6.88c0,.28-.08,.5-.25,.67s-.38,.25-.64,.25Zm5.57-6.99c.9,0,1.71-.21,2.43-.63s1.28-1,1.7-1.74c.41-.74,.62-1.57,.62-2.49s-.21-1.77-.62-2.5c-.41-.73-.98-1.31-1.7-1.74s-1.53-.64-2.43-.64-1.69,.21-2.41,.64-1.28,1.01-1.68,1.74c-.41,.73-.61,1.57-.61,2.5s.2,1.75,.61,2.49,.97,1.32,1.68,1.74,1.52,.63,2.41,.63Z"/><path class="cls-1" d="M145.3,128.98c-1.26,0-2.38-.28-3.36-.83-.97-.55-1.74-1.32-2.29-2.3-.55-.98-.83-2.11-.83-3.37s.26-2.4,.78-3.38,1.24-1.74,2.16-2.3,1.98-.84,3.18-.84,2.22,.27,3.1,.81,1.56,1.28,2.05,2.23c.48,.95,.72,2.04,.72,3.25,0,.25-.08,.45-.23,.6-.16,.15-.36,.22-.61,.22h-9.94v-1.5h10.13l-1,.73c.01-.9-.15-1.71-.49-2.43-.34-.72-.83-1.28-1.46-1.68s-1.38-.61-2.26-.61-1.67,.21-2.34,.63c-.67,.42-1.19,1-1.55,1.74-.37,.74-.55,1.59-.55,2.54s.21,1.79,.62,2.53c.41,.73,.98,1.31,1.7,1.73,.72,.42,1.54,.63,2.48,.63,.56,0,1.13-.1,1.7-.29,.57-.19,1.03-.44,1.37-.74,.17-.14,.37-.21,.58-.22,.22,0,.41,.05,.56,.18,.2,.19,.31,.39,.32,.61,0,.22-.08,.41-.27,.56-.51,.44-1.17,.8-1.96,1.09-.79,.29-1.56,.43-2.29,.43Z"/><path class="cls-1" d="M155.94,128.86c-.28,0-.5-.08-.67-.25s-.25-.38-.25-.64v-10.99c0-.28,.08-.5,.25-.67,.16-.16,.39-.25,.67-.25,.27,0,.48,.08,.64,.25,.16,.16,.25,.39,.25,.67v10.99c0,.27-.08,.48-.25,.64-.16,.16-.38,.25-.64,.25Zm10.06,0c-.27,0-.48-.09-.66-.26-.17-.17-.26-.38-.26-.63v-6.08c0-.97-.18-1.76-.55-2.39-.37-.62-.87-1.09-1.5-1.4-.63-.31-1.34-.47-2.14-.47s-1.45,.15-2.07,.44c-.62,.3-1.1,.7-1.46,1.22-.36,.51-.54,1.1-.54,1.75h-1.29c.03-.98,.3-1.86,.79-2.63,.5-.77,1.16-1.38,1.99-1.82,.83-.44,1.75-.67,2.76-.67,1.11,0,2.1,.23,2.97,.69,.87,.46,1.56,1.13,2.07,2.02s.76,1.97,.76,3.25v6.08c0,.25-.09,.46-.26,.63-.17,.17-.38,.26-.63,.26Z"/><path class="cls-1" d="M180.94,128.86c-.28,0-.5-.08-.65-.23s-.23-.38-.23-.66v-11.01c0-.28,.08-.5,.23-.66s.37-.23,.65-.23,.5,.08,.66,.23c.16,.16,.23,.37,.23,.66v11.01c0,.28-.08,.5-.23,.66-.16,.16-.37,.23-.66,.23Zm-.14-7.88c.05-.97,.3-1.83,.76-2.6,.46-.76,1.06-1.36,1.8-1.8,.74-.44,1.56-.66,2.47-.66,.72,0,1.27,.1,1.66,.3,.39,.2,.54,.5,.44,.89-.06,.23-.17,.39-.32,.47-.15,.08-.33,.11-.54,.09-.21-.02-.45-.03-.71-.05-.87-.08-1.65,.01-2.33,.27-.68,.26-1.22,.65-1.61,1.18s-.6,1.16-.6,1.89h-1.03Z"/><path class="cls-1" d="M196.8,128.98c-1.26,0-2.38-.28-3.36-.83-.97-.55-1.74-1.32-2.29-2.3-.55-.98-.83-2.11-.83-3.37s.26-2.4,.78-3.38,1.24-1.74,2.16-2.3,1.98-.84,3.18-.84,2.22,.27,3.1,.81,1.56,1.28,2.05,2.23c.48,.95,.72,2.04,.72,3.25,0,.25-.08,.45-.23,.6-.16,.15-.36,.22-.61,.22h-9.94v-1.5h10.13l-1,.73c.01-.9-.15-1.71-.49-2.43-.34-.72-.83-1.28-1.46-1.68s-1.38-.61-2.26-.61-1.67,.21-2.34,.63c-.67,.42-1.19,1-1.55,1.74-.37,.74-.55,1.59-.55,2.54s.21,1.79,.62,2.53c.41,.73,.98,1.31,1.7,1.73,.72,.42,1.54,.63,2.48,.63,.56,0,1.13-.1,1.7-.29,.57-.19,1.03-.44,1.37-.74,.17-.14,.37-.21,.58-.22,.22,0,.41,.05,.56,.18,.2,.19,.31,.39,.32,.61,0,.22-.08,.41-.27,.56-.51,.44-1.17,.8-1.96,1.09-.79,.29-1.56,.43-2.29,.43Z"/><path class="cls-1" d="M210.99,128.98c-.92,0-1.83-.16-2.74-.47s-1.64-.78-2.2-1.4c-.17-.19-.24-.4-.21-.63,.03-.23,.15-.44,.35-.61,.22-.16,.44-.22,.68-.19,.23,.03,.43,.13,.58,.3,.37,.44,.87,.77,1.49,1.01,.62,.23,1.3,.35,2.05,.35,1.15,0,1.99-.2,2.5-.6s.78-.88,.79-1.44c0-.56-.27-1.03-.79-1.39-.53-.37-1.4-.65-2.62-.85-1.58-.25-2.73-.69-3.46-1.31-.73-.62-1.1-1.36-1.1-2.22,0-.79,.21-1.46,.63-1.99,.42-.53,.98-.93,1.68-1.19,.7-.26,1.47-.4,2.31-.4,1.04,0,1.95,.18,2.7,.54,.76,.36,1.37,.84,1.84,1.45,.16,.2,.22,.41,.19,.63-.03,.22-.16,.4-.37,.54-.19,.11-.4,.14-.64,.11-.24-.04-.45-.15-.62-.34-.39-.45-.84-.78-1.36-.99-.51-.21-1.11-.32-1.78-.32-.86,0-1.54,.18-2.06,.53s-.77,.79-.77,1.32c0,.36,.1,.67,.29,.94,.2,.27,.53,.5,1.01,.7,.48,.2,1.14,.37,2,.51,1.17,.19,2.09,.46,2.77,.83,.68,.37,1.16,.8,1.45,1.29,.29,.49,.43,1.03,.43,1.6,0,.73-.21,1.38-.64,1.93s-1.02,.99-1.78,1.3c-.76,.31-1.62,.47-2.61,.47Z"/><path class="cls-1" d="M226.1,128.98c-1.26,0-2.38-.28-3.36-.83-.97-.55-1.74-1.32-2.29-2.3-.55-.98-.83-2.11-.83-3.37s.26-2.4,.78-3.38,1.24-1.74,2.16-2.3,1.98-.84,3.18-.84,2.22,.27,3.1,.81,1.56,1.28,2.05,2.23c.48,.95,.72,2.04,.72,3.25,0,.25-.08,.45-.23,.6-.16,.15-.36,.22-.61,.22h-9.94v-1.5h10.13l-1,.73c.01-.9-.15-1.71-.49-2.43-.34-.72-.83-1.28-1.46-1.68s-1.38-.61-2.26-.61-1.67,.21-2.34,.63c-.67,.42-1.19,1-1.55,1.74-.37,.74-.55,1.59-.55,2.54s.21,1.79,.62,2.53c.41,.73,.98,1.31,1.7,1.73,.72,.42,1.54,.63,2.48,.63,.56,0,1.13-.1,1.7-.29,.57-.19,1.03-.44,1.37-.74,.17-.14,.37-.21,.58-.22,.22,0,.41,.05,.56,.18,.2,.19,.31,.39,.32,.61,0,.22-.08,.41-.27,.56-.51,.44-1.17,.8-1.96,1.09-.79,.29-1.56,.43-2.29,.43Z"/><path class="cls-1" d="M241,128.98c-1.2,0-2.28-.28-3.23-.85s-1.7-1.34-2.26-2.33c-.55-.98-.83-2.09-.83-3.32s.28-2.36,.85-3.34c.57-.98,1.34-1.76,2.33-2.33,.98-.57,2.09-.85,3.32-.85s2.33,.28,3.31,.85c.97,.57,1.75,1.34,2.32,2.33,.57,.98,.86,2.1,.88,3.34l-.73,.56c0,1.12-.26,2.13-.78,3.03-.52,.9-1.23,1.61-2.13,2.13-.9,.52-1.91,.78-3.05,.78Zm.19-1.64c.9,0,1.71-.21,2.42-.63,.71-.42,1.27-1,1.68-1.74s.62-1.57,.62-2.49-.21-1.77-.62-2.5c-.41-.73-.97-1.31-1.68-1.74-.71-.43-1.52-.64-2.42-.64s-1.69,.21-2.41,.64c-.72,.43-1.29,1.01-1.71,1.74-.42,.73-.63,1.57-.63,2.5s.21,1.75,.63,2.49c.42,.74,.99,1.32,1.71,1.74,.72,.42,1.52,.63,2.41,.63Zm5.59,1.52c-.27,0-.48-.08-.66-.25-.17-.16-.26-.38-.26-.64v-4l.44-1.85,1.38,.35v5.5c0,.27-.09,.48-.26,.64-.17,.16-.39,.25-.65,.25Z"/><path class="cls-1" d="M253.25,128.86c-.28,0-.5-.08-.65-.23s-.23-.38-.23-.66v-11.01c0-.28,.08-.5,.23-.66s.37-.23,.65-.23,.5,.08,.66,.23c.16,.16,.23,.37,.23,.66v11.01c0,.28-.08,.5-.23,.66-.16,.16-.37,.23-.66,.23Zm-.14-7.88c.05-.97,.3-1.83,.76-2.6,.46-.76,1.06-1.36,1.8-1.8,.74-.44,1.56-.66,2.47-.66,.72,0,1.27,.1,1.66,.3,.39,.2,.54,.5,.44,.89-.06,.23-.17,.39-.32,.47-.15,.08-.33,.11-.54,.09-.21-.02-.45-.03-.71-.05-.87-.08-1.65,.01-2.33,.27-.68,.26-1.22,.65-1.61,1.18s-.6,1.16-.6,1.89h-1.03Z"/><path class="cls-1" d="M269.01,128.98c-1.23,0-2.33-.28-3.29-.85s-1.72-1.34-2.27-2.33c-.55-.98-.83-2.09-.83-3.32s.26-2.36,.79-3.34,1.25-1.76,2.17-2.33,1.98-.85,3.18-.85c.95,0,1.83,.19,2.63,.56s1.51,.94,2.12,1.68c.17,.19,.23,.39,.19,.6-.05,.21-.18,.39-.4,.55-.17,.12-.36,.17-.57,.13-.21-.04-.39-.15-.55-.34-.9-1.03-2.04-1.54-3.41-1.54-.87,0-1.64,.21-2.3,.63s-1.18,1-1.54,1.73c-.37,.73-.55,1.58-.55,2.53s.19,1.77,.58,2.5c.39,.73,.93,1.31,1.64,1.73,.7,.42,1.5,.63,2.41,.63,.61,0,1.17-.08,1.67-.25,.51-.16,.95-.42,1.34-.76,.19-.16,.38-.24,.58-.26,.2-.01,.39,.05,.56,.19,.19,.17,.29,.37,.32,.58,.02,.22-.05,.41-.22,.56-1.14,1.04-2.56,1.57-4.26,1.57Z"/><path class="cls-1" d="M279.3,123.65c-.28,0-.5-.09-.67-.26-.16-.17-.25-.39-.25-.65v-11.23c0-.28,.08-.5,.25-.67s.39-.25,.67-.25c.27,0,.48,.08,.64,.25,.16,.16,.25,.39,.25,.67v11.23c0,.26-.08,.48-.25,.65-.16,.17-.38,.26-.64,.26Zm0,5.21c-.28,0-.5-.08-.67-.25s-.25-.38-.25-.64v-10.99c0-.28,.08-.5,.25-.67,.16-.16,.39-.25,.67-.25,.27,0,.48,.08,.64,.25,.16,.16,.25,.39,.25,.67v10.99c0,.27-.08,.48-.25,.64-.16,.16-.38,.25-.64,.25Zm10.06,0c-.27,0-.48-.09-.66-.26-.17-.17-.26-.38-.26-.63v-6.08c0-.97-.18-1.76-.55-2.39-.37-.62-.87-1.09-1.5-1.4-.63-.31-1.34-.47-2.14-.47s-1.45,.15-2.07,.44c-.62,.3-1.1,.7-1.46,1.22-.36,.51-.54,1.1-.54,1.75h-1.29c.03-.98,.3-1.86,.79-2.63,.5-.77,1.16-1.38,1.99-1.82,.83-.44,1.75-.67,2.76-.67,1.11,0,2.1,.23,2.97,.69,.87,.46,1.56,1.13,2.07,2.02s.76,1.97,.76,3.25v6.08c0,.25-.09,.46-.26,.63-.17,.17-.38,.26-.63,.26Z"/><path class="cls-1" d="M309.05,128.98c-1.2,0-2.28-.28-3.23-.85s-1.7-1.34-2.26-2.33c-.55-.98-.83-2.09-.83-3.32s.28-2.36,.85-3.34c.57-.98,1.34-1.76,2.33-2.33,.98-.57,2.09-.85,3.32-.85s2.33,.28,3.31,.85c.97,.57,1.75,1.34,2.32,2.33,.57,.98,.86,2.1,.88,3.34l-.73,.56c0,1.12-.26,2.13-.78,3.03-.52,.9-1.23,1.61-2.13,2.13-.9,.52-1.91,.78-3.05,.78Zm.19-1.64c.9,0,1.71-.21,2.42-.63,.71-.42,1.27-1,1.68-1.74s.62-1.57,.62-2.49-.21-1.77-.62-2.5c-.41-.73-.97-1.31-1.68-1.74-.71-.43-1.52-.64-2.42-.64s-1.69,.21-2.41,.64c-.72,.43-1.29,1.01-1.71,1.74-.42,.73-.63,1.57-.63,2.5s.21,1.75,.63,2.49c.42,.74,.99,1.32,1.71,1.74,.72,.42,1.52,.63,2.41,.63Zm5.59,1.52c-.27,0-.48-.08-.66-.25-.17-.16-.26-.38-.26-.64v-4l.44-1.85,1.38,.35v5.5c0,.27-.09,.48-.26,.64-.17,.16-.39,.25-.65,.25Z"/><path class="cls-1" d="M324.88,128.98c-.92,0-1.83-.16-2.74-.47s-1.64-.78-2.2-1.4c-.17-.19-.24-.4-.21-.63,.03-.23,.15-.44,.35-.61,.22-.16,.44-.22,.68-.19,.23,.03,.43,.13,.58,.3,.37,.44,.87,.77,1.49,1.01,.62,.23,1.3,.35,2.05,.35,1.15,0,1.99-.2,2.5-.6s.78-.88,.79-1.44c0-.56-.27-1.03-.79-1.39-.53-.37-1.4-.65-2.62-.85-1.58-.25-2.73-.69-3.46-1.31-.73-.62-1.1-1.36-1.1-2.22,0-.79,.21-1.46,.63-1.99,.42-.53,.98-.93,1.68-1.19,.7-.26,1.47-.4,2.31-.4,1.04,0,1.95,.18,2.7,.54,.76,.36,1.37,.84,1.84,1.45,.16,.2,.22,.41,.19,.63-.03,.22-.16,.4-.37,.54-.19,.11-.4,.14-.64,.11-.24-.04-.45-.15-.62-.34-.39-.45-.84-.78-1.36-.99-.51-.21-1.11-.32-1.78-.32-.86,0-1.54,.18-2.06,.53s-.77,.79-.77,1.32c0,.36,.1,.67,.29,.94,.2,.27,.53,.5,1.01,.7,.48,.2,1.14,.37,2,.51,1.17,.19,2.09,.46,2.77,.83,.68,.37,1.16,.8,1.45,1.29,.29,.49,.43,1.03,.43,1.6,0,.73-.21,1.38-.64,1.93s-1.02,.99-1.78,1.3c-.76,.31-1.62,.47-2.61,.47Z"/><path class="cls-1" d="M338.65,128.98c-.92,0-1.83-.16-2.74-.47s-1.64-.78-2.2-1.4c-.17-.19-.24-.4-.21-.63,.03-.23,.15-.44,.35-.61,.22-.16,.44-.22,.68-.19,.23,.03,.43,.13,.58,.3,.37,.44,.87,.77,1.49,1.01,.62,.23,1.3,.35,2.05,.35,1.15,0,1.99-.2,2.5-.6s.78-.88,.79-1.44c0-.56-.27-1.03-.79-1.39-.53-.37-1.4-.65-2.62-.85-1.58-.25-2.73-.69-3.46-1.31-.73-.62-1.1-1.36-1.1-2.22,0-.79,.21-1.46,.63-1.99,.42-.53,.98-.93,1.68-1.19,.7-.26,1.47-.4,2.31-.4,1.04,0,1.95,.18,2.7,.54,.76,.36,1.37,.84,1.84,1.45,.16,.2,.22,.41,.19,.63-.03,.22-.16,.4-.37,.54-.19,.11-.4,.14-.64,.11-.24-.04-.45-.15-.62-.34-.39-.45-.84-.78-1.36-.99-.51-.21-1.11-.32-1.78-.32-.86,0-1.54,.18-2.06,.53s-.77,.79-.77,1.32c0,.36,.1,.67,.29,.94,.2,.27,.53,.5,1.01,.7,.48,.2,1.14,.37,2,.51,1.17,.19,2.09,.46,2.77,.83,.68,.37,1.16,.8,1.45,1.29,.29,.49,.43,1.03,.43,1.6,0,.73-.21,1.38-.64,1.93s-1.02,.99-1.78,1.3c-.76,.31-1.62,.47-2.61,.47Z"/><path class="cls-1" d="M353.76,128.98c-1.26,0-2.38-.28-3.36-.83-.97-.55-1.74-1.32-2.29-2.3-.55-.98-.83-2.11-.83-3.37s.26-2.4,.78-3.38,1.24-1.74,2.16-2.3,1.98-.84,3.18-.84,2.22,.27,3.1,.81,1.56,1.28,2.05,2.23c.48,.95,.72,2.04,.72,3.25,0,.25-.08,.45-.23,.6-.16,.15-.36,.22-.61,.22h-9.94v-1.5h10.13l-1,.73c.01-.9-.15-1.71-.49-2.43-.34-.72-.83-1.28-1.46-1.68s-1.38-.61-2.26-.61-1.67,.21-2.34,.63c-.67,.42-1.19,1-1.55,1.74-.37,.74-.55,1.59-.55,2.54s.21,1.79,.62,2.53c.41,.73,.98,1.31,1.7,1.73,.72,.42,1.54,.63,2.48,.63,.56,0,1.13-.1,1.7-.29,.57-.19,1.03-.44,1.37-.74,.17-.14,.37-.21,.58-.22,.22,0,.41,.05,.56,.18,.2,.19,.31,.39,.32,.61,0,.22-.08,.41-.27,.56-.51,.44-1.17,.8-1.96,1.09-.79,.29-1.56,.43-2.29,.43Z"/><path class="cls-1" d="M367.96,128.98c-.92,0-1.83-.16-2.74-.47s-1.64-.78-2.2-1.4c-.17-.19-.24-.4-.21-.63,.03-.23,.15-.44,.35-.61,.22-.16,.44-.22,.68-.19,.23,.03,.43,.13,.58,.3,.37,.44,.87,.77,1.49,1.01,.62,.23,1.3,.35,2.05,.35,1.15,0,1.99-.2,2.5-.6s.78-.88,.79-1.44c0-.56-.27-1.03-.79-1.39-.53-.37-1.4-.65-2.62-.85-1.58-.25-2.73-.69-3.46-1.31-.73-.62-1.1-1.36-1.1-2.22,0-.79,.21-1.46,.63-1.99,.42-.53,.98-.93,1.68-1.19,.7-.26,1.47-.4,2.31-.4,1.04,0,1.95,.18,2.7,.54,.76,.36,1.37,.84,1.84,1.45,.16,.2,.22,.41,.19,.63-.03,.22-.16,.4-.37,.54-.19,.11-.4,.14-.64,.11-.24-.04-.45-.15-.62-.34-.39-.45-.84-.78-1.36-.99-.51-.21-1.11-.32-1.78-.32-.86,0-1.54,.18-2.06,.53s-.77,.79-.77,1.32c0,.36,.1,.67,.29,.94,.2,.27,.53,.5,1.01,.7,.48,.2,1.14,.37,2,.51,1.17,.19,2.09,.46,2.77,.83,.68,.37,1.16,.8,1.45,1.29,.29,.49,.43,1.03,.43,1.6,0,.73-.21,1.38-.64,1.93s-1.02,.99-1.78,1.3c-.76,.31-1.62,.47-2.61,.47Z"/><path class="cls-1" d="M381.73,128.98c-.92,0-1.83-.16-2.74-.47s-1.64-.78-2.2-1.4c-.17-.19-.24-.4-.21-.63,.03-.23,.15-.44,.35-.61,.22-.16,.44-.22,.68-.19,.23,.03,.43,.13,.58,.3,.37,.44,.87,.77,1.49,1.01,.62,.23,1.3,.35,2.05,.35,1.15,0,1.99-.2,2.5-.6s.78-.88,.79-1.44c0-.56-.27-1.03-.79-1.39-.53-.37-1.4-.65-2.62-.85-1.58-.25-2.73-.69-3.46-1.31-.73-.62-1.1-1.36-1.1-2.22,0-.79,.21-1.46,.63-1.99,.42-.53,.98-.93,1.68-1.19,.7-.26,1.47-.4,2.31-.4,1.04,0,1.95,.18,2.7,.54,.76,.36,1.37,.84,1.84,1.45,.16,.2,.22,.41,.19,.63-.03,.22-.16,.4-.37,.54-.19,.11-.4,.14-.64,.11-.24-.04-.45-.15-.62-.34-.39-.45-.84-.78-1.36-.99-.51-.21-1.11-.32-1.78-.32-.86,0-1.54,.18-2.06,.53s-.77,.79-.77,1.32c0,.36,.1,.67,.29,.94,.2,.27,.53,.5,1.01,.7,.48,.2,1.14,.37,2,.51,1.17,.19,2.09,.46,2.77,.83,.68,.37,1.16,.8,1.45,1.29,.29,.49,.43,1.03,.43,1.6,0,.73-.21,1.38-.64,1.93s-1.02,.99-1.78,1.3c-.76,.31-1.62,.47-2.61,.47Z"/><path class="cls-1" d="M391.95,128.86c-.28,0-.5-.08-.67-.25s-.25-.38-.25-.64v-10.99c0-.27,.08-.48,.25-.66,.16-.17,.39-.26,.67-.26,.27,0,.48,.09,.64,.26,.16,.17,.25,.39,.25,.66v10.99c0,.27-.08,.48-.25,.64-.16,.16-.38,.25-.64,.25Zm8.21,0c-.27,0-.48-.08-.66-.25-.17-.16-.26-.38-.26-.64v-6.74c0-1.11-.29-1.98-.87-2.63-.58-.65-1.32-.97-2.22-.97-.97,0-1.76,.32-2.39,.95s-.94,1.45-.94,2.47h-1.29c.03-1,.25-1.88,.67-2.66,.41-.77,.98-1.38,1.7-1.81,.72-.44,1.53-.66,2.43-.66s1.73,.22,2.44,.66c.71,.44,1.26,1.05,1.66,1.85,.4,.8,.6,1.73,.6,2.81v6.74c0,.27-.08,.48-.25,.64s-.38,.25-.64,.25Zm8.16,0c-.27,0-.48-.08-.66-.25-.17-.16-.26-.38-.26-.64v-6.74c0-1.11-.29-1.98-.87-2.63-.58-.65-1.32-.97-2.22-.97-.97,0-1.76,.32-2.37,.97-.62,.65-.92,1.51-.9,2.58h-1.61c.02-1.04,.24-1.96,.68-2.76,.44-.79,1.04-1.41,1.8-1.85s1.63-.66,2.6-.66,1.73,.22,2.44,.66c.71,.44,1.26,1.05,1.66,1.85,.4,.8,.6,1.73,.6,2.81v6.74c0,.27-.08,.48-.25,.64-.16,.16-.38,.25-.64,.25Z"/><path class="cls-1" d="M420.15,128.98c-1.26,0-2.38-.28-3.36-.83-.97-.55-1.74-1.32-2.29-2.3-.55-.98-.83-2.11-.83-3.37s.26-2.4,.78-3.38,1.24-1.74,2.16-2.3,1.98-.84,3.18-.84,2.22,.27,3.1,.81,1.56,1.28,2.05,2.23c.48,.95,.72,2.04,.72,3.25,0,.25-.08,.45-.23,.6-.16,.15-.36,.22-.61,.22h-9.94v-1.5h10.13l-1,.73c.01-.9-.15-1.71-.49-2.43-.34-.72-.83-1.28-1.46-1.68s-1.38-.61-2.26-.61-1.67,.21-2.34,.63c-.67,.42-1.19,1-1.55,1.74-.37,.74-.55,1.59-.55,2.54s.21,1.79,.62,2.53c.41,.73,.98,1.31,1.7,1.73,.72,.42,1.54,.63,2.48,.63,.56,0,1.13-.1,1.7-.29,.57-.19,1.03-.44,1.37-.74,.17-.14,.37-.21,.58-.22,.22,0,.41,.05,.56,.18,.2,.19,.31,.39,.32,.61,0,.22-.08,.41-.27,.56-.51,.44-1.17,.8-1.96,1.09-.79,.29-1.56,.43-2.29,.43Z"/><path class="cls-1" d="M430.8,128.86c-.28,0-.5-.08-.67-.25s-.25-.38-.25-.64v-10.99c0-.28,.08-.5,.25-.67,.16-.16,.39-.25,.67-.25,.27,0,.48,.08,.64,.25,.16,.16,.25,.39,.25,.67v10.99c0,.27-.08,.48-.25,.64-.16,.16-.38,.25-.64,.25Zm10.06,0c-.27,0-.48-.09-.66-.26-.17-.17-.26-.38-.26-.63v-6.08c0-.97-.18-1.76-.55-2.39-.37-.62-.87-1.09-1.5-1.4-.63-.31-1.34-.47-2.14-.47s-1.45,.15-2.07,.44c-.62,.3-1.1,.7-1.46,1.22-.36,.51-.54,1.1-.54,1.75h-1.29c.03-.98,.3-1.86,.79-2.63,.5-.77,1.16-1.38,1.99-1.82,.83-.44,1.75-.67,2.76-.67,1.11,0,2.1,.23,2.97,.69,.87,.46,1.56,1.13,2.07,2.02s.76,1.97,.76,3.25v6.08c0,.25-.09,.46-.26,.63-.17,.17-.38,.26-.63,.26Z"/><path class="cls-1" d="M446.07,118.1c-.23,0-.43-.07-.58-.22-.16-.15-.23-.33-.23-.55,0-.23,.08-.42,.23-.57,.16-.15,.35-.22,.58-.22h5.96c.23,0,.43,.07,.58,.22,.16,.15,.23,.34,.23,.57,0,.22-.08,.4-.23,.55-.16,.15-.35,.22-.58,.22h-5.96Zm5.82,10.76c-.83,0-1.56-.19-2.21-.58-.65-.39-1.16-.92-1.53-1.6-.37-.68-.56-1.45-.56-2.33v-11.44c0-.27,.08-.48,.25-.66,.16-.17,.38-.26,.64-.26s.48,.09,.65,.26c.17,.17,.26,.39,.26,.66v11.44c0,.79,.23,1.45,.7,1.95s1.07,.76,1.8,.76h.63c.25,0,.45,.09,.61,.26,.16,.17,.23,.39,.23,.66s-.09,.48-.28,.64c-.19,.16-.42,.25-.7,.25h-.49Z"/><path class="cls-1" d="M471.3,128.98c-1.23,0-2.34-.28-3.32-.85-.98-.57-1.76-1.34-2.33-2.33-.57-.98-.85-2.1-.85-3.34s.28-2.34,.83-3.32c.55-.98,1.31-1.76,2.26-2.33s2.03-.85,3.23-.85c1.04,0,1.99,.22,2.83,.67s1.52,1.03,2.04,1.77v-6.88c0-.28,.08-.5,.26-.67,.17-.16,.39-.25,.66-.25s.48,.08,.65,.25c.17,.16,.26,.39,.26,.67v11.04c-.03,1.22-.33,2.31-.9,3.29-.57,.97-1.34,1.74-2.32,2.3-.97,.56-2.07,.84-3.29,.84Zm0-1.64c.9,0,1.71-.21,2.42-.64,.71-.43,1.27-1.01,1.68-1.74s.62-1.57,.62-2.5-.21-1.75-.62-2.49-.97-1.32-1.68-1.74c-.71-.42-1.52-.63-2.42-.63s-1.69,.21-2.41,.63c-.72,.42-1.29,1-1.71,1.74-.42,.74-.63,1.57-.63,2.49s.21,1.77,.63,2.5c.42,.73,.99,1.31,1.71,1.74,.72,.43,1.52,.64,2.41,.64Z"/><path class="cls-1" d="M488.82,128.98c-1.2,0-2.28-.28-3.23-.85s-1.7-1.34-2.26-2.33c-.55-.98-.83-2.09-.83-3.32s.28-2.36,.85-3.34c.57-.98,1.34-1.76,2.33-2.33,.98-.57,2.09-.85,3.32-.85s2.33,.28,3.31,.85c.97,.57,1.75,1.34,2.32,2.33,.57,.98,.86,2.1,.88,3.34l-.73,.56c0,1.12-.26,2.13-.78,3.03-.52,.9-1.23,1.61-2.13,2.13-.9,.52-1.91,.78-3.05,.78Zm.19-1.64c.9,0,1.71-.21,2.42-.63,.71-.42,1.27-1,1.68-1.74s.62-1.57,.62-2.49-.21-1.77-.62-2.5c-.41-.73-.97-1.31-1.68-1.74-.71-.43-1.52-.64-2.42-.64s-1.69,.21-2.41,.64c-.72,.43-1.29,1.01-1.71,1.74-.42,.73-.63,1.57-.63,2.5s.21,1.75,.63,2.49c.42,.74,.99,1.32,1.71,1.74,.72,.42,1.52,.63,2.41,.63Zm5.59,1.52c-.27,0-.48-.08-.66-.25-.17-.16-.26-.38-.26-.64v-4l.44-1.85,1.38,.35v5.5c0,.27-.09,.48-.26,.64-.17,.16-.39,.25-.65,.25Z"/><path class="cls-1" d="M499.36,118.1c-.23,0-.43-.07-.58-.22-.16-.15-.23-.33-.23-.55,0-.23,.08-.42,.23-.57,.16-.15,.35-.22,.58-.22h5.96c.23,0,.43,.07,.58,.22,.16,.15,.23,.34,.23,.57,0,.22-.08,.4-.23,.55-.16,.15-.35,.22-.58,.22h-5.96Zm5.82,10.76c-.83,0-1.56-.19-2.21-.58-.65-.39-1.16-.92-1.53-1.6-.37-.68-.56-1.45-.56-2.33v-11.44c0-.27,.08-.48,.25-.66,.16-.17,.38-.26,.64-.26s.48,.09,.65,.26c.17,.17,.26,.39,.26,.66v11.44c0,.79,.23,1.45,.7,1.95s1.07,.76,1.8,.76h.63c.25,0,.45,.09,.61,.26,.16,.17,.23,.39,.23,.66s-.09,.48-.28,.64c-.19,.16-.42,.25-.7,.25h-.49Z"/><path class="cls-1" d="M516.39,128.98c-1.2,0-2.28-.28-3.23-.85s-1.7-1.34-2.26-2.33c-.55-.98-.83-2.09-.83-3.32s.28-2.36,.85-3.34c.57-.98,1.34-1.76,2.33-2.33,.98-.57,2.09-.85,3.32-.85s2.33,.28,3.31,.85c.97,.57,1.75,1.34,2.32,2.33,.57,.98,.86,2.1,.88,3.34l-.73,.56c0,1.12-.26,2.13-.78,3.03-.52,.9-1.23,1.61-2.13,2.13-.9,.52-1.91,.78-3.05,.78Zm.19-1.64c.9,0,1.71-.21,2.42-.63,.71-.42,1.27-1,1.68-1.74s.62-1.57,.62-2.49-.21-1.77-.62-2.5c-.41-.73-.97-1.31-1.68-1.74-.71-.43-1.52-.64-2.42-.64s-1.69,.21-2.41,.64c-.72,.43-1.29,1.01-1.71,1.74-.42,.73-.63,1.57-.63,2.5s.21,1.75,.63,2.49c.42,.74,.99,1.32,1.71,1.74,.72,.42,1.52,.63,2.41,.63Zm5.59,1.52c-.27,0-.48-.08-.66-.25-.17-.16-.26-.38-.26-.64v-4l.44-1.85,1.38,.35v5.5c0,.27-.09,.48-.26,.64-.17,.16-.39,.25-.65,.25Z"/><path class="cls-1" d="M532.22,128.98c-.92,0-1.83-.16-2.74-.47s-1.64-.78-2.2-1.4c-.17-.19-.24-.4-.21-.63,.03-.23,.15-.44,.35-.61,.22-.16,.44-.22,.68-.19,.23,.03,.43,.13,.58,.3,.37,.44,.87,.77,1.49,1.01,.62,.23,1.3,.35,2.05,.35,1.15,0,1.99-.2,2.5-.6s.78-.88,.79-1.44c0-.56-.27-1.03-.79-1.39-.53-.37-1.4-.65-2.62-.85-1.58-.25-2.73-.69-3.46-1.31-.73-.62-1.1-1.36-1.1-2.22,0-.79,.21-1.46,.63-1.99,.42-.53,.98-.93,1.68-1.19,.7-.26,1.47-.4,2.31-.4,1.04,0,1.95,.18,2.7,.54,.76,.36,1.37,.84,1.84,1.45,.16,.2,.22,.41,.19,.63-.03,.22-.16,.4-.37,.54-.19,.11-.4,.14-.64,.11-.24-.04-.45-.15-.62-.34-.39-.45-.84-.78-1.36-.99-.51-.21-1.11-.32-1.78-.32-.86,0-1.54,.18-2.06,.53s-.77,.79-.77,1.32c0,.36,.1,.67,.29,.94,.2,.27,.53,.5,1.01,.7,.48,.2,1.14,.37,2,.51,1.17,.19,2.09,.46,2.77,.83,.68,.37,1.16,.8,1.45,1.29,.29,.49,.43,1.03,.43,1.6,0,.73-.21,1.38-.64,1.93s-1.02,.99-1.78,1.3c-.76,.31-1.62,.47-2.61,.47Z"/><path class="cls-1" d="M542.44,134.33c-.28,0-.5-.08-.67-.25-.16-.16-.25-.39-.25-.67v-11.04c.02-1.22,.31-2.31,.88-3.29s1.34-1.74,2.32-2.3,2.07-.84,3.29-.84,2.36,.28,3.34,.85,1.76,1.34,2.33,2.33,.85,2.1,.85,3.34-.28,2.34-.83,3.32-1.31,1.76-2.26,2.33-2.03,.85-3.23,.85c-1.04,0-1.99-.22-2.84-.67-.85-.44-1.53-1.03-2.05-1.77v6.88c0,.28-.08,.5-.25,.67s-.38,.25-.64,.25Zm5.57-6.99c.9,0,1.71-.21,2.43-.63s1.28-1,1.7-1.74c.41-.74,.62-1.57,.62-2.49s-.21-1.77-.62-2.5c-.41-.73-.98-1.31-1.7-1.74s-1.53-.64-2.43-.64-1.69,.21-2.41,.64-1.28,1.01-1.68,1.74c-.41,.73-.61,1.57-.61,2.5s.2,1.75,.61,2.49,.97,1.32,1.68,1.74,1.52,.63,2.41,.63Z"/><path class="cls-1" d="M564.87,128.98c-1.2,0-2.28-.28-3.23-.85s-1.7-1.34-2.26-2.33c-.55-.98-.83-2.09-.83-3.32s.28-2.36,.85-3.34c.57-.98,1.34-1.76,2.33-2.33,.98-.57,2.09-.85,3.32-.85s2.33,.28,3.31,.85c.97,.57,1.75,1.34,2.32,2.33,.57,.98,.86,2.1,.88,3.34l-.73,.56c0,1.12-.26,2.13-.78,3.03-.52,.9-1.23,1.61-2.13,2.13-.9,.52-1.91,.78-3.05,.78Zm.19-1.64c.9,0,1.71-.21,2.42-.63,.71-.42,1.27-1,1.68-1.74s.62-1.57,.62-2.49-.21-1.77-.62-2.5c-.41-.73-.97-1.31-1.68-1.74-.71-.43-1.52-.64-2.42-.64s-1.69,.21-2.41,.64c-.72,.43-1.29,1.01-1.71,1.74-.42,.73-.63,1.57-.63,2.5s.21,1.75,.63,2.49c.42,.74,.99,1.32,1.71,1.74,.72,.42,1.52,.63,2.41,.63Zm5.59,1.52c-.27,0-.48-.08-.66-.25-.17-.16-.26-.38-.26-.64v-4l.44-1.85,1.38,.35v5.5c0,.27-.09,.48-.26,.64-.17,.16-.39,.25-.65,.25Z"/><path class="cls-1" d="M581.94,128.98c-1.23,0-2.33-.28-3.29-.85s-1.72-1.34-2.27-2.33c-.55-.98-.83-2.09-.83-3.32s.26-2.36,.79-3.34,1.25-1.76,2.17-2.33,1.98-.85,3.18-.85c.95,0,1.83,.19,2.63,.56s1.51,.94,2.12,1.68c.17,.19,.23,.39,.19,.6-.05,.21-.18,.39-.4,.55-.17,.12-.36,.17-.57,.13-.21-.04-.39-.15-.55-.34-.9-1.03-2.04-1.54-3.41-1.54-.87,0-1.64,.21-2.3,.63s-1.18,1-1.54,1.73c-.37,.73-.55,1.58-.55,2.53s.19,1.77,.58,2.5c.39,.73,.93,1.31,1.64,1.73,.7,.42,1.5,.63,2.41,.63,.61,0,1.17-.08,1.67-.25,.51-.16,.95-.42,1.34-.76,.19-.16,.38-.24,.58-.26,.2-.01,.39,.05,.56,.19,.19,.17,.29,.37,.32,.58,.02,.22-.05,.41-.22,.56-1.14,1.04-2.56,1.57-4.26,1.57Z"/><path class="cls-1" d="M597.12,128.98c-1.26,0-2.38-.28-3.36-.83-.97-.55-1.74-1.32-2.29-2.3-.55-.98-.83-2.11-.83-3.37s.26-2.4,.78-3.38,1.24-1.74,2.16-2.3,1.98-.84,3.18-.84,2.22,.27,3.1,.81,1.56,1.28,2.05,2.23c.48,.95,.72,2.04,.72,3.25,0,.25-.08,.45-.23,.6-.16,.15-.36,.22-.61,.22h-9.94v-1.5h10.13l-1,.73c.01-.9-.15-1.71-.49-2.43-.34-.72-.83-1.28-1.46-1.68s-1.38-.61-2.26-.61-1.67,.21-2.34,.63c-.67,.42-1.19,1-1.55,1.74-.37,.74-.55,1.59-.55,2.54s.21,1.79,.62,2.53c.41,.73,.98,1.31,1.7,1.73,.72,.42,1.54,.63,2.48,.63,.56,0,1.13-.1,1.7-.29,.57-.19,1.03-.44,1.37-.74,.17-.14,.37-.21,.58-.22,.22,0,.41,.05,.56,.18,.2,.19,.31,.39,.32,.61,0,.22-.08,.41-.27,.56-.51,.44-1.17,.8-1.96,1.09-.79,.29-1.56,.43-2.29,.43Z"/></g><path class="cls-1" d="M9.46,119.46l3.02-4.51c.76-1.13,2.31-1.34,3.36-.47,6.68,5.55,15.72,8.64,24.77,8.64,14.46,0,30.85-8.65,30.85-33.08v-23.7c-3.66,9.33-15.34,16.96-31.72,16.96-23.36,.01-39.74-17.63-39.74-40.02S16.38,3.08,39.73,3.08c11.5,0,22.14,3.98,28.29,10.7,1.39,1.53,3.95,.48,3.95-1.59V7.06c0-1.26,1.02-2.28,2.28-2.28h8.15c1.26,0,2.28,1.02,2.28,2.28V89.71c0,33.25-24.4,43.59-43.05,43.59-12.77,0-23.84-3.89-31.78-10.83-.87-.76-1.06-2.05-.41-3.02h.02ZM71.45,42.26c0-15.6-13.07-27.65-29.1-27.65S13.59,26.99,13.59,43.28s12.55,28.5,28.76,28.5,29.1-12.21,29.1-29.51h0Z"/><path class="cls-1" d="M104.98,4.77h8.68c1.26,0,2.28,1.02,2.28,2.28v7.08c0,2.15,2.71,3.12,4.05,1.44,5.52-6.96,14.32-11.87,26.3-12.45,1.31-.06,2.41,.98,2.41,2.29V14.93c0,1.21-.95,2.23-2.17,2.28-18.63,.77-30.6,11.55-30.6,31v36.9c0,1.26-1.02,2.28-2.28,2.28h-8.68c-1.26,0-2.28-1.02-2.28-2.28V7.06c0-1.26,1.02-2.28,2.28-2.28h0Z"/><path class="cls-1" d="M152.75,46.16c0-24.26,16.56-43.08,40.08-43.08,11.14,0,21.23,3.65,27.96,10.85,1.41,1.51,3.93,.49,3.93-1.57V7.06c0-1.26,1.02-2.28,2.28-2.28h8.68c1.26,0,2.28,1.02,2.28,2.28V85.1c0,1.26-1.02,2.28-2.28,2.28h-8.68c-1.26,0-2.28-1.02-2.28-2.28v-5.24c0-2.07-2.53-3.08-3.94-1.56-6.73,7.25-16.82,10.78-27.95,10.78-23.53,0-40.08-19-40.08-42.91h0Zm71.98-.01c0-17.3-12.72-30.53-28.93-30.53s-29.45,12.89-29.45,30.53,12.55,30.36,29.45,30.36,28.93-13.06,28.93-30.36Z"/><path class="cls-1" d="M250.12,75l3.28-6.39c.67-1.31,2.37-1.63,3.51-.7,6.14,5.04,14.53,8.94,25.54,8.94,11.68,0,21.26-5.26,21.26-12.72,0-8.65-10.28-11.03-20.57-13.57-15.68-3.9-29.98-8.14-29.98-23.92,0-14.93,16.03-23.58,30.32-23.58,10.88,0,19.04,2.65,27.15,7.68,1.01,.63,1.39,1.91,.87,2.97l-3.2,6.43c-.59,1.18-2.06,1.62-3.2,.95-6.53-3.88-13.42-5.82-21.45-5.82-8.71,0-16.9,4.75-16.9,11.19,0,8.14,9.41,10.01,19.34,12.04,15.34,3.39,31.2,8.99,31.2,25.27,0,17.47-18.3,25.27-34.85,25.27s-26.48-6.49-31.85-11.35c-.76-.69-.95-1.81-.48-2.72v.03Z"/><path class="cls-1" d="M333.7,4.77h8.15c1.26,0,2.28,1.02,2.28,2.28v5.17c0,2.05,2.51,3.07,3.92,1.58,6.82-7.19,17.19-10.74,28.5-10.74,23.53,0,40.08,18.83,40.08,42.91s-16.56,43.08-40.08,43.08c-11.01,0-21.2-3.65-27.96-10.86-1.41-1.5-3.93-.49-3.93,1.57v21.75c0,1.26-1.02,2.28-2.28,2.28h-8.68c-1.26,0-2.28-1.02-2.28-2.28V7.06c0-1.26,1.02-2.28,2.28-2.28h0Zm69.34,41.21c0-17.47-12.55-30.36-29.45-30.36s-28.93,13.06-28.93,30.36,12.72,30.53,28.93,30.53,29.45-12.89,29.45-30.53Z"/><path class="cls-1" d="M537.85,74.46l2.56-4.98c.88-1.72,3.11-2.2,4.63-1,6.07,4.77,14.25,8.39,24.86,8.39,11.68,0,21.26-5.26,21.26-12.72,0-8.65-10.28-11.03-20.57-13.57-15.68-3.9-29.98-8.14-29.98-23.92,0-14.93,16.03-23.58,30.32-23.58,10.6,0,18.62,2.52,26.53,7.3,1.37,.83,1.88,2.57,1.16,4.01l-2.5,5.02c-.79,1.59-2.76,2.16-4.3,1.28-6.31-3.59-12.99-5.39-20.72-5.39-8.71,0-16.9,4.75-16.9,11.19,0,8.14,9.41,10.01,19.34,12.04,15.34,3.39,31.2,8.99,31.2,25.27,0,17.47-18.3,25.27-34.85,25.27-15.42,0-25.82-6.09-31.35-10.9-1.06-.93-1.35-2.46-.7-3.72h0Z"/><g><path class="cls-1" d="M453.86,20.08l-3.79-4.34c-1.99-2.28-1.61-5.83,.89-7.53,7.81-5.33,17.09-8.21,26.64-8.21,8.95,0,17.73,2.56,25.25,7.3,2.62,1.65,3.23,5.2,1.27,7.6l-3.65,4.45c-1.63,1.99-4.47,2.41-6.68,1.08-4.86-2.92-10.47-4.5-16.2-4.5-6.14,0-12.11,1.8-17.18,5.12-2.1,1.38-4.91,.92-6.56-.97h.01Z"/><path class="cls-1" d="M473.67,89.01c-.29,3.08-3.21,5.17-6.23,4.51-21.53-4.66-37.13-23.61-37.13-46.21,0-8.97,2.57-17.76,7.33-25.29,1.65-2.62,5.21-3.23,7.6-1.27l4.45,3.65c1.99,1.64,2.41,4.47,1.08,6.68-2.94,4.87-4.52,10.49-4.52,16.22,0,14.77,10.03,27.18,23.97,30.51,2.51,.6,4.24,2.88,4,5.45l-.54,5.75h0Z"/><path class="cls-1" d="M482.5,88.31l-.56-5.73c-.25-2.57,1.46-4.87,3.97-5.49,14.37-3.53,24.54-16.8,23.79-32.01-.19-3.86-1.09-7.64-2.63-11.14-1.02-2.31-.16-5.03,1.99-6.36l4.89-3.04c2.62-1.63,6.06-.58,7.36,2.21,2.54,5.49,4.01,11.46,4.31,17.54,1.15,23.26-14.66,43.52-36.82,48.48-3.03,.68-5.97-1.39-6.28-4.47h-.02Z"/></g></g></g></svg>