<?xml version="1.0" encoding="utf-8"?>
<!-- Generator: Adobe Illustrator 23.0.0, SVG Export Plug-In . SVG Version: 6.00 Build 0)  -->
<svg version="1.1"
	 id="svg92" inkscape:export-filename="/Users/six/Desktop/logotype.png" inkscape:export-xdpi="96" inkscape:export-ydpi="96" inkscape:version="1.0 (4035a4f, 2020-05-01)" sodipodi:docname="logotype.svg" xmlns:cc="http://creativecommons.org/ns#" xmlns:dc="http://purl.org/dc/elements/1.1/" xmlns:inkscape="http://www.inkscape.org/namespaces/inkscape" xmlns:rdf="http://www.w3.org/1999/02/22-rdf-syntax-ns#" xmlns:sodipodi="http://sodipodi.sourceforge.net/DTD/sodipodi-0.dtd" xmlns:svg="http://www.w3.org/2000/svg"
	 xmlns="http://www.w3.org/2000/svg" xmlns:xlink="http://www.w3.org/1999/xlink" x="0px" y="0px" viewBox="0 0 566.9 566.9"
	 style="enable-background:new 0 0 566.9 566.9;" xml:space="preserve">
<style type="text/css">
	.st0{fill:none;}
	.st1{fill:#9931FC;}
	.st2{fill-opacity:0;stroke:#9931FC;stroke-width:0.2646;}
	.st3{fill:#2D22DE;}
	.st4{fill-opacity:0;}
	.st5{fill:none;stroke:#FFFFFF;stroke-width:0.2646;}
	.st6{font-family:'ArialMT';}
	.st7{font-size:90px;}
</style>
<sodipodi:namedview  bordercolor="#666666" borderopacity="1.0" fit-margin-bottom="0" fit-margin-left="0" fit-margin-right="0" fit-margin-top="0" id="base" inkscape:current-layer="layer1" inkscape:cx="60" inkscape:cy="560" inkscape:document-rotation="0" inkscape:document-units="mm" inkscape:pageopacity="1" inkscape:pageshadow="2" inkscape:snap-object-midpoints="false" inkscape:window-height="1042" inkscape:window-maximized="0" inkscape:window-width="1398" inkscape:window-x="299" inkscape:window-y="23" inkscape:zoom="0.35" pagecolor="#ffffff" showgrid="false">
	</sodipodi:namedview>
<g id="layer1" inkscape:groupmode="layer" inkscape:label="Livello 1">
	<g id="g782" transform="translate(-3.9136718e-7,6.0115193)">
		<g id="g576" transform="matrix(3.0136366,0,0,3.0136364,-160.22177,-129.93213)">
			<g id="g532">
				<path class="st0" d="M54.3,66.8V176h185.9V66.8H54.3z M97.4,121.7c0-10.7,8.7-19.3,19.3-19.3c10.7,0,19.3,8.6,19.3,19.3
					c0,10.7-8.6,19.3-19.3,19.3C106.1,141,97.4,132.3,97.4,121.7z M239.1,159.8l-11.6-8.5l-14.4-10.5l-10.4-7.6
					c-3.5,4.8-9.2,7.9-15.6,7.9c-10.7,0-19.3-8.6-19.3-19.3c0-10.7,8.6-19.3,19.3-19.3c6.4,0,12,3.1,15.6,7.9l10.4-7.6l14.4-10.5
					l11.6-8.5V159.8z"/>
			</g>
			<g id="g540">
				<path class="st1" d="M151.9,86.1c-9-9-21.5-14.5-35.2-14.5c-27.6,0-50,22.4-50,50c0,27.6,22.4,50,50,50
					c13.7,0,26.2-5.5,35.2-14.5c9.2-9.1,14.8-21.7,14.8-35.6C166.8,107.8,161.1,95.2,151.9,86.1z M116.7,141
					c-10.7,0-19.3-8.6-19.3-19.3c0-10.7,8.7-19.3,19.3-19.3c10.7,0,19.3,8.6,19.3,19.3C136,132.3,127.4,141,116.7,141z"/>
				<g id="g538">
					<path class="st2" d="M151.9,86.1c-9-9-21.5-14.5-35.2-14.5c-27.6,0-50,22.4-50,50c0,27.6,22.4,50,50,50
						c13.7,0,26.2-5.5,35.2-14.5c9.2-9.1,14.8-21.7,14.8-35.6C166.8,107.8,161.1,95.2,151.9,86.1z M116.7,141
						c-10.7,0-19.3-8.6-19.3-19.3c0-10.7,8.7-19.3,19.3-19.3c10.7,0,19.3,8.6,19.3,19.3C136,132.3,127.4,141,116.7,141z"/>
				</g>
			</g>
			<g id="g548">
				<path class="st3" d="M202.7,133.1c-3.5,4.8-9.2,7.9-15.6,7.9c-10.7,0-19.3-8.6-19.3-19.3c0-10.7,8.6-19.3,19.3-19.3
					c6.4,0,12,3.1,15.6,7.9l10.4-7.6l14.4-10.5c-9.1-12.4-23.8-20.4-40.3-20.4c-13.7,0-26.2,5.5-35.2,14.5
					c-9.2,9.1-14.8,21.7-14.8,35.5c0,13.9,5.7,26.5,14.8,35.6c9,9,21.5,14.5,35.2,14.5c16.6,0,31.2-8.1,40.3-20.4l-14.4-10.5
					L202.7,133.1z"/>
				<g id="g546">
					<path class="st4" d="M213.1,140.7l14.4,10.5c-9.1,12.4-23.8,20.4-40.3,20.4c-13.7,0-26.2-5.5-35.2-14.5
						c-9.2-9.1-14.8-21.7-14.8-35.6c0-13.9,5.7-26.5,14.8-35.5c9-9,21.5-14.5,35.2-14.5c16.6,0,31.2,8.1,40.3,20.4l-14.4,10.5
						l-10.4,7.6c-3.5-4.8-9.2-7.9-15.6-7.9c-10.7,0-19.3,8.6-19.3,19.3c0,10.7,8.6,19.3,19.3,19.3c6.4,0,12-3.1,15.6-7.9
						L213.1,140.7z"/>
				</g>
			</g>
			<g id="g554">
				<g id="g552">
					<path class="st2" d="M151.9,86.1c-9-9-21.5-14.5-35.2-14.5c-27.6,0-50,22.4-50,50c0,27.6,22.4,50,50,50
						c13.7,0,26.2-5.5,35.2-14.5c9.2-9.1,14.8-21.7,14.8-35.6C166.8,107.8,161.1,95.2,151.9,86.1z M116.7,141
						c-10.7,0-19.3-8.6-19.3-19.3c0-10.7,8.7-19.3,19.3-19.3c10.7,0,19.3,8.6,19.3,19.3C136,132.3,127.4,141,116.7,141z"/>
				</g>
			</g>
			<g id="g570">
				<g id="g568">
					<path class="st5" d="M136,121.7c0,10.7-8.6,19.3-19.3,19.3c-10.7,0-19.3-8.6-19.3-19.3c0-10.7,8.7-19.3,19.3-19.3
						C127.4,102.4,136,111,136,121.7z"/>
				</g>
			</g>
			<g id="g574">
				<path class="st0" d="M237.2,121.7c0,11.1-3.6,21.3-9.7,29.6l-14.4-10.5l-10.4-7.6c2.4-3.2,3.7-7.1,3.7-11.4
					c0-4.3-1.4-8.2-3.7-11.4l10.4-7.6l14.4-10.5C233.6,100.4,237.2,110.6,237.2,121.7z"/>
				<path class="st0" d="M239.1,83.5v76.2l-11.6-8.5c6.1-8.3,9.7-18.5,9.7-29.6c0-11.1-3.6-21.3-9.7-29.6L239.1,83.5z"/>
			</g>
		</g>
		<g id="g751" transform="translate(-0.6166807)">
			<text transform="matrix(1 0 0 1 0.1538 465.4918)" class="st1 st6 st7">Open</text>
			<text transform="matrix(1 0 0 1 216.7973 465.4478)" class="st3 st6 st7">Citations</text>
		</g>
	</g>
</g>
</svg>
