<?xml version="1.0" encoding="UTF-8"?>
<svg id="Livello_2" data-name="Livello 2" xmlns="http://www.w3.org/2000/svg" viewBox="0 0 2040.5 1333.88">
  <defs>
    <style>
      .cls-1 {
        fill: #fff;
      }
    </style>
  </defs>
  <g id="Livello_2-2" data-name="Livello 2">
    <g id="Livello_1-2" data-name="Livello 1-2">
      <g>
        <path class="cls-1" d="M884.02,1209.66c11.62,0,22.29-2.76,32.01-8.31,9.71-5.54,17.66-12.94,23.84-22.21l23.69,17.71c-9.08,12.35-20.47,22.16-34.19,29.42-13.71,7.27-28.83,10.9-45.36,10.9-13.62,0-26.42-2.63-38.41-7.9-11.99-5.26-22.43-12.39-31.33-21.39-8.91-8.99-15.94-19.52-21.12-31.6s-7.76-25.02-7.76-38.82,2.59-26.74,7.76-38.82c5.18-12.08,12.21-22.61,21.12-31.6,8.9-8.99,19.34-16.12,31.33-21.39,11.99-5.26,24.79-7.9,38.41-7.9,16.53,0,31.65,3.64,45.36,10.9,13.71,7.27,25.11,17.07,34.19,29.42l-23.69,17.71c-6.18-9.26-14.13-16.66-23.84-22.2-9.72-5.54-20.39-8.31-32.01-8.31-9.44,0-18.3,1.91-26.56,5.72-8.27,3.81-15.49,8.99-21.66,15.53-6.18,6.54-11.08,14.17-14.71,22.89-3.63,8.71-5.45,18.07-5.45,28.06s1.81,19.34,5.45,28.06c3.63,8.72,8.54,16.34,14.71,22.89,6.17,6.54,13.39,11.71,21.66,15.53,8.26,3.81,17.12,5.72,26.56,5.72"/>
        <path class="cls-1" d="M1039.03,1237.17h-28.06v-143.84h28.06v143.84ZM1010.97,1050.56h28.06v28.06h-28.06v-28.06h0Z"/>
        <polygon class="cls-1" points="1166.8 1081.62 1140.65 1081.62 1140.65 1237.44 1112.58 1237.44 1112.58 1081.62 1086.16 1081.62 1086.16 1053.55 1112.58 1053.55 1112.58 1000.16 1140.65 1000.16 1140.65 1053.55 1166.8 1053.55 1166.8 1081.62"/>
        <path class="cls-1" d="M1278.49,1210.75c6.18,0,11.94-1.19,17.3-3.57,5.35-2.37,10.03-5.57,14.03-9.59,3.99-4.02,7.17-8.72,9.53-14.12,2.36-5.39,3.54-11.1,3.54-17.13s-1.19-12.01-3.54-17.4c-2.36-5.39-5.54-10.1-9.53-14.12-4-4.02-8.68-7.22-14.03-9.6-5.36-2.37-11.13-3.56-17.3-3.56s-11.94,1.19-17.3,3.56c-5.36,2.38-10.04,5.58-14.03,9.6-4,4.02-7.18,8.73-9.53,14.12-2.36,5.39-3.54,11.19-3.54,17.4s1.18,11.74,3.54,17.13,5.54,10.1,9.53,14.12c4,4.02,8.67,7.22,14.03,9.59,5.36,2.38,11.12,3.57,17.3,3.57M1278.36,1093.6c9.97,0,19.35,1.9,28.14,5.72,8.79,3.81,16.5,8.99,23.11,15.53,6.62,6.54,11.83,14.26,15.64,23.16,3.8,8.9,5.71,18.35,5.71,28.33v70.56h-28.06v-13.21c-6.18,4.68-12.99,8.36-20.43,11.06-7.45,2.7-15.44,4.05-23.98,4.05-9.99,0-19.39-1.9-28.19-5.72-8.81-3.81-16.48-8.99-23.02-15.52-6.54-6.54-11.71-14.21-15.53-23.02-3.81-8.81-5.72-18.21-5.72-28.2s1.9-19.43,5.71-28.33c3.8-8.9,8.97-16.62,15.49-23.16,6.53-6.54,14.19-11.71,22.98-15.53,8.79-3.81,18.18-5.72,28.14-5.72"/>
        <polygon class="cls-1" points="1474.91 1081.62 1448.76 1081.62 1448.76 1237.44 1420.7 1237.44 1420.7 1081.62 1394.27 1081.62 1394.27 1053.55 1420.7 1053.55 1420.7 1000.16 1448.76 1000.16 1448.76 1053.55 1474.91 1053.55 1474.91 1081.62"/>
        <path class="cls-1" d="M1550.38,1237.17h-28.06v-143.84h28.06v143.84ZM1522.31,1050.56h28.06v28.06h-28.06v-28.06Z"/>
        <path class="cls-1" d="M1669.56,1209.11c5.97,0,11.63-1.14,16.97-3.41s10.01-5.4,13.99-9.4c3.99-4,7.11-8.67,9.37-14.03s3.4-11.04,3.4-17.03-1.14-11.67-3.4-17.03c-2.27-5.36-5.39-10.04-9.37-14.03-3.98-4-8.64-7.13-13.99-9.4-5.34-2.27-11-3.4-16.97-3.4s-11.64,1.14-16.98,3.4c-5.34,2.28-10,5.41-13.99,9.4-3.98,4-7.15,8.67-9.5,14.03s-3.53,11.03-3.53,17.03,1.18,11.67,3.53,17.03c2.36,5.36,5.52,10.04,9.5,14.03,3.99,4,8.65,7.13,13.99,9.4s11,3.41,16.98,3.41M1669.43,1093.33c9.99,0,19.34,1.86,28.06,5.59,8.72,3.72,16.35,8.85,22.89,15.39,6.54,6.53,11.66,14.16,15.39,22.88,3.72,8.72,5.58,18.08,5.58,28.06s-1.86,19.34-5.58,28.06c-3.73,8.72-8.85,16.35-15.39,22.89s-14.17,11.67-22.89,15.39-18.07,5.58-28.06,5.58-19.34-1.86-28.06-5.58c-8.72-3.72-16.35-8.85-22.88-15.39-6.54-6.54-11.67-14.17-15.39-22.89-3.73-8.71-5.59-18.07-5.59-28.06s1.86-19.34,5.59-28.06c3.72-8.72,8.85-16.35,15.39-22.88,6.53-6.54,14.16-11.67,22.88-15.39s18.07-5.59,28.06-5.59"/>
        <path class="cls-1" d="M1881.92,1102.86c8.63,5.81,15.46,13.31,20.5,22.47,5.04,9.18,7.56,19.21,7.56,30.11v82h-28.06v-82c0-4.72-.91-9.22-2.74-13.48-1.82-4.27-4.33-8-7.52-11.17-3.2-3.18-6.88-5.67-11.08-7.49-4.19-1.81-8.66-2.72-13.4-2.72s-9.26.91-13.54,2.72c-4.29,1.82-7.98,4.32-11.08,7.49-3.1,3.18-5.56,6.9-7.39,11.17-1.82,4.27-2.73,8.76-2.73,13.48v82h-28.06v-144.93h28.06l.22,10.35c4.9-3.27,10.31-5.81,16.22-7.63,5.9-1.81,12.04-2.72,18.4-2.72s12.5.91,18.41,2.72c5.91,1.82,11.31,4.36,16.22,7.63"/>
        <path class="cls-1" d="M2032.57,1170.7c2.54,3.63,4.54,7.59,5.99,11.85,1.45,4.27,2.09,8.76,1.91,13.49-.18,5.99-1.55,11.53-4.09,16.61-2.55,5.09-5.9,9.54-10.08,13.35-4.18,3.81-9.08,6.76-14.71,8.85s-11.54,3.04-17.71,2.86c-8.72-.37-16.57-2.63-23.56-6.81-7-4.18-12.31-9.71-15.94-16.62l23.43-16.35c.9,3.27,2.9,6.04,5.99,8.31,3.09,2.28,6.72,3.41,10.9,3.41,4.72.18,8.85-1.13,12.39-3.95,3.54-2.81,5.32-6.31,5.32-10.49,0-1.27-.1-2.18-.28-2.72v-.55c-.18-.36-.27-.68-.27-.95s-.1-.59-.27-.95c-1.28-3.09-3.64-5.63-7.08-7.63-.55-.36-1.37-.72-2.46-1.09l.28-.27c-2.55-1.45-5.36-2.86-8.45-4.22s-6.23-2.81-9.4-4.36c-3.18-1.54-6.31-3.18-9.4-4.9s-6-3.77-8.72-6.13v-.27l-.82-.82c-3.81-3.63-6.81-7.85-8.99-12.67-2.18-4.81-3.18-9.94-3-15.39.18-5.45,1.45-10.53,3.81-15.26,2.36-4.72,5.49-8.8,9.4-12.26,3.9-3.45,8.49-6.17,13.76-8.17,5.26-2,10.9-2.9,16.89-2.72,7.8.37,14.85,2.27,21.11,5.72,6.27,3.45,11.21,8.08,14.85,13.9l-22.89,15.8c-1.09-2-2.86-3.72-5.31-5.18-2.45-1.45-5.23-2.18-8.31-2.18-4.18-.18-7.76.82-10.76,3s-4.49,4.81-4.49,7.9c0,.91.09,1.54.27,1.9.36,2,1.27,3.72,2.72,5.18,1.45,1.46,3.27,2.64,5.45,3.54,3.45,2,7.4,4.05,11.85,6.13,4.45,2.09,8.95,4.4,13.48,6.95,3.27,1.46,6.54,3.54,9.81,6.27l1.36,1.36c1.81,1.63,3.81,3.81,6,6.54"/>
        <path class="cls-1" d="M99.43,1209.66c9.44,0,18.39-1.9,26.83-5.7,8.45-3.8,15.8-8.96,22.07-15.47,6.27-6.51,11.21-14.16,14.85-22.93,3.63-8.77,5.45-18.14,5.45-28.09s-1.82-19.36-5.45-28.23c-3.64-8.86-8.58-16.6-14.85-23.21-6.26-6.6-13.62-11.8-22.07-15.6-8.44-3.8-17.39-5.7-26.83-5.7s-18.35,1.9-26.7,5.7c-8.36,3.8-15.66,9-21.93,15.6-6.27,6.61-11.22,14.34-14.85,23.21-3.64,8.87-5.45,18.27-5.45,28.23s1.81,19.32,5.45,28.09c3.63,8.77,8.58,16.42,14.85,22.93,6.27,6.51,13.57,11.67,21.93,15.47,8.35,3.8,17.25,5.7,26.7,5.7M99.43,1036.66c13.8,0,26.79,2.63,38.96,7.9,12.17,5.27,22.75,12.44,31.74,21.52,8.99,9.08,16.08,19.75,21.25,32.01,5.18,12.26,7.76,25.38,7.76,39.37s-2.59,26.79-7.76,38.96c-5.18,12.17-12.26,22.8-21.25,31.88s-19.57,16.26-31.74,21.52c-12.17,5.27-25.16,7.9-38.96,7.9s-26.75-2.63-38.82-7.9c-12.08-5.26-22.61-12.44-31.6-21.52-8.99-9.08-16.07-19.7-21.25-31.88-5.18-12.17-7.76-25.15-7.76-38.96s2.59-27.11,7.76-39.37c5.18-12.26,12.26-22.93,21.25-32.01s19.52-16.25,31.6-21.52,25.02-7.9,38.82-7.9"/>
        <path class="cls-1" d="M314.37,1209.39c5.99,0,11.66-1.18,17.03-3.54,5.36-2.36,10.04-5.54,14.03-9.53,3.99-4,7.17-8.67,9.53-14.03s3.54-11.04,3.54-17.03-1.19-11.67-3.54-17.03c-2.36-5.36-5.54-10.04-9.53-14.03s-8.67-7.17-14.03-9.53-11.04-3.54-17.03-3.54-11.95,1.18-17.3,3.54c-5.36,2.36-10.04,5.54-14.03,9.53s-7.13,8.67-9.4,14.03-3.4,11.03-3.4,17.03v.27c0,6,1.18,11.67,3.54,17.03,2.36,5.36,5.53,10.03,9.53,14.03,3.99,4,8.67,7.13,14.03,9.4,5.35,2.28,11.03,3.41,17.03,3.41M314.37,1093.06c9.99,0,19.34,1.91,28.06,5.72,8.72,3.81,16.35,8.99,22.89,15.53s11.71,14.16,15.53,22.88,5.72,18.08,5.72,28.06-1.9,19.34-5.72,28.06c-3.81,8.71-8.99,16.34-15.53,22.88s-14.17,11.71-22.89,15.53c-8.71,3.81-18.07,5.72-28.06,5.72-8.36,0-16.26-1.36-23.7-4.09-7.45-2.73-14.26-6.45-20.43-11.17v111.7h-28.06v-168.63c0-9.99,1.86-19.34,5.58-28.06,3.72-8.72,8.85-16.34,15.39-22.88s14.21-11.72,23.02-15.53c8.8-3.81,18.21-5.72,28.2-5.72"/>
        <path class="cls-1" d="M501.53,1121.66c-8.9,0-16.85,2.29-23.84,6.87-7,4.58-12.31,10.65-15.94,18.19h79.55c-.91-1.43-1.77-2.86-2.59-4.3-.82-1.44-1.68-2.79-2.59-4.05-4.18-5.21-9.26-9.3-15.26-12.26s-12.44-4.45-19.34-4.45M513.24,1174.79h-54.76c1.09,4.9,2.95,9.49,5.58,13.76,2.63,4.27,5.86,7.95,9.67,11.03,3.81,3.09,8.08,5.5,12.8,7.22,4.72,1.73,9.71,2.59,14.98,2.59,6.36,0,12.3-1.27,17.85-3.81,5.54-2.54,10.4-6.08,14.57-10.62h32.96c-1.09,2.72-2.41,5.31-3.94,7.76-1.55,2.45-3.23,4.86-5.04,7.22-6.54,8.36-14.71,15.03-24.52,20.03s-20.43,7.49-31.88,7.49c-9.99,0-19.34-1.86-28.06-5.59-8.71-3.72-16.34-8.85-22.88-15.39s-11.67-14.17-15.39-22.88c-3.72-8.72-5.59-18.07-5.59-28.06s1.86-19.34,5.59-28.06c3.72-8.71,8.85-16.34,15.39-22.88s14.17-11.67,22.88-15.39c8.72-3.72,18.07-5.58,28.06-5.58,11.44,0,22.07,2.5,31.88,7.49,9.8,5,17.98,11.76,24.52,20.29,5.99,7.27,10.35,15.8,13.08,25.61,1.63,5.81,2.45,11.99,2.45,18.52,0,3.27-.27,6.36-.82,9.26h-59.39,0Z"/>
        <path class="cls-1" d="M714.02,1102.86c8.63,5.81,15.46,13.31,20.5,22.47,5.04,9.18,7.56,19.21,7.56,30.11v82h-28.06v-82c0-4.72-.91-9.22-2.74-13.48-1.82-4.27-4.33-8-7.52-11.17-3.2-3.18-6.88-5.67-11.08-7.49-4.2-1.81-8.66-2.72-13.4-2.72s-9.26.91-13.54,2.72c-4.28,1.82-7.98,4.32-11.07,7.49-3.1,3.18-5.56,6.9-7.39,11.17-1.82,4.27-2.73,8.76-2.73,13.48v82h-28.06v-144.93h28.06l.22,10.35c4.9-3.27,10.31-5.81,16.22-7.63,5.9-1.81,12.04-2.72,18.4-2.72s12.5.91,18.41,2.72c5.91,1.82,11.31,4.36,16.22,7.63"/>
      </g>
      <g>
        <path class="cls-1" d="M615.14,754.72c-9.64,0-19.08-4.76-24.67-13.48l-213.06-332.7,211.33-330.7c8.7-13.61,26.79-17.6,40.41-8.9,13.61,8.7,17.6,26.79,8.9,40.41l-191.17,299.16,192.87,301.18c8.71,13.61,4.75,31.7-8.86,40.42-4.89,3.13-10.35,4.62-15.75,4.62h0Z"/>
        <path class="cls-1" d="M1425.35,754.72c-5.4,0-10.86-1.49-15.75-4.62-13.61-8.72-17.57-26.81-8.86-40.42l192.87-301.18-191.17-299.16c-8.7-13.61-4.72-31.71,8.9-40.41,13.62-8.71,31.71-4.72,40.41,8.9l211.32,330.7-213.05,332.7c-5.58,8.72-15.03,13.48-24.67,13.48h0Z"/>
        <g>
          <g>
            <path class="cls-1" d="M954.77,759.05c-131.56,5.86-234.79,61.76-234.79,130h252.91v-150.14c-6.09-.74-12.12-1.63-18.11-2.66v22.81h-.01Z"/>
            <path class="cls-1" d="M1085.73,759.04v-22.97c-5.99,1.05-12.03,1.95-18.11,2.7v150.27h252.9c0-68.24-103.24-124.13-234.79-130h0Z"/>
            <path class="cls-1" d="M1362.15,226.63c-8.88-20.91-19.37-40.5-31.32-58.87l-89.58,67.54c5.86,10.33,11.2,21.1,15.88,32.41,13.52,32.75,20.31,67.42,20.31,104.14s-6.79,71.28-20.31,103.64c-5.19,12.42-11.2,24.17-17.85,35.37l89.75,66.07c12.72-19.12,23.76-39.57,33.11-61.36,19.31-44.88,28.94-92.78,28.94-143.72s-9.63-100-28.94-145.21h0Z"/>
            <path class="cls-1" d="M1201.87,560.1c-23.38,24.04-50.76,43.06-82.2,57.06s-64.78,21-99.95,21-68.35-7-99.4-21c-31.17-14-58.38-33.02-81.7-57.06s-41.8-52.26-55.32-84.62-20.26-66.93-20.26-103.64,6.73-71.39,20.26-104.14c13.52-32.69,32-61.25,55.32-85.61,23.32-24.37,50.53-43.56,81.7-57.56,31.05-14,64.22-21.06,99.4-21.06s68.51,7.06,99.95,21.06c31.44,14,58.82,33.19,82.2,57.56,1.36,1.43,2.67,2.9,4,4.36l88.08-66.41c-3.57-3.89-7.19-7.74-10.94-11.49-33.44-33.52-72.9-59.98-118.21-79.44-45.3-19.4-93.66-29.11-145.08-29.11s-99.62,9.7-144.59,29.11c-44.97,19.46-84.21,45.92-117.71,79.44-33.45,33.46-59.83,72.82-79.14,118.08-19.26,45.2-28.89,93.61-28.89,145.2s9.63,98.85,28.89,143.72c19.31,44.93,45.69,84.13,79.14,117.59,33.5,33.52,72.74,59.98,117.71,79.44,25.5,11.01,52.05,18.89,79.64,23.65,5.99,1.03,12.03,1.92,18.11,2.66,15.3,1.86,30.92,2.79,46.84,2.79s32.23-.97,47.89-2.92c6.08-.75,12.12-1.65,18.11-2.7,27.32-4.78,53.68-12.61,79.08-23.49,45.3-19.46,84.76-45.92,118.21-79.44,2.92-2.92,5.78-5.89,8.59-8.9l-88.69-65.29c-.36.37-.68.77-1.04,1.15h0Z"/>
          </g>
          <path class="cls-1" d="M1094.06,238.96c-22.28-9.72-47.27-15.33-73.81-15.33-92.17,0-166.9,65.91-166.9,147.21s74.73,147.2,166.9,147.2,166.9-65.9,166.9-147.2c0-34.48-13.54-66.12-36.05-91.21.27,2.05.46,4.13.46,6.26,0,26.41-21.61,47.82-48.27,47.82s-48.27-21.41-48.27-47.82c0-23.29,16.81-42.66,39.05-46.93"/>
        </g>
      </g>
    </g>
  </g>
</svg>